<svg width="229" height="80" viewBox="0 0 229 80" fill="none" xmlns="http://www.w3.org/2000/svg">
<path d="M26.2324 27.9502C25.9915 26.6253 25.5941 25.4932 25.04 24.5537C24.5101 23.5902 23.8477 22.7952 23.0527 22.1689C22.2578 21.5426 21.3545 21.085 20.3428 20.7959C19.3551 20.4827 18.2832 20.3262 17.127 20.3262C15.9948 20.3262 14.9108 20.4707 13.875 20.7598C12.8392 21.0247 11.9238 21.4583 11.1289 22.0605C10.334 22.6628 9.69564 23.4336 9.21387 24.373C8.75618 25.3125 8.52734 26.4326 8.52734 27.7334C8.52734 28.8896 8.80436 29.8893 9.3584 30.7324C9.91243 31.5514 10.6471 32.2741 11.5625 32.9004C12.502 33.5026 13.5739 34.0446 14.7783 34.5264C15.9827 35.0081 17.2354 35.4899 18.5361 35.9717C19.9814 36.5257 21.4268 37.1279 22.8721 37.7783C24.3174 38.4046 25.6061 39.1755 26.7383 40.0908C27.8945 41.0062 28.8219 42.1143 29.5205 43.415C30.2432 44.7158 30.6045 46.3177 30.6045 48.2207C30.6045 49.8828 30.3636 51.3522 29.8818 52.6289C29.4242 53.9056 28.7738 55.0257 27.9307 55.9893C27.1117 56.9287 26.1481 57.7236 25.04 58.374C23.932 59.0244 22.7396 59.5544 21.4629 59.9639C20.1862 60.3493 18.8493 60.6263 17.4521 60.7949C16.0791 60.9635 14.7181 61.0479 13.3691 61.0479C11.7552 61.0479 10.1413 60.9515 8.52734 60.7588C6.9375 60.5661 5.34766 60.2891 3.75781 59.9277C3.54102 59.8796 3.36035 59.7832 3.21582 59.6387C3.09538 59.4701 3.02311 59.3014 2.99902 59.1328C2.95085 58.627 2.90267 57.8923 2.85449 56.9287C2.80632 55.9411 2.75814 54.9414 2.70996 53.9297C2.68587 52.918 2.66178 52.0026 2.6377 51.1836C2.61361 50.3646 2.60156 49.8828 2.60156 49.7383L4.4082 49.5576C4.57682 51.0029 4.9502 52.2555 5.52832 53.3154C6.13053 54.3753 6.87728 55.2546 7.76855 55.9531C8.68392 56.6276 9.71973 57.1335 10.876 57.4707C12.0563 57.7839 13.321 57.9404 14.6699 57.9404C15.8743 57.9404 17.0426 57.8079 18.1748 57.543C19.307 57.2539 20.3066 56.8083 21.1738 56.2061C22.0651 55.5798 22.7757 54.7848 23.3057 53.8213C23.8356 52.8577 24.1006 51.6895 24.1006 50.3164C24.1006 49.1842 23.8236 48.2207 23.2695 47.4258C22.7155 46.6309 21.9688 45.9323 21.0293 45.3301C20.1139 44.7038 19.054 44.1497 17.8496 43.668C16.6693 43.1862 15.4408 42.6924 14.1641 42.1865C12.7188 41.6084 11.2734 40.9941 9.82812 40.3438C8.38281 39.6693 7.08203 38.8623 5.92578 37.9229C4.79362 36.9834 3.86621 35.8512 3.14355 34.5264C2.44499 33.1774 2.0957 31.5273 2.0957 29.5762C2.0957 27.2155 2.55339 25.2402 3.46875 23.6504C4.4082 22.0605 5.62467 20.7839 7.11816 19.8203C8.63574 18.8568 10.346 18.1702 12.249 17.7607C14.1761 17.3512 16.1393 17.1465 18.1387 17.1465C19.4635 17.1465 20.9089 17.2549 22.4746 17.4717C24.0404 17.6644 25.5098 17.9294 26.8828 18.2666C27.0996 18.3148 27.2682 18.4232 27.3887 18.5918C27.5332 18.7363 27.6175 18.8929 27.6416 19.0615C27.6898 19.5674 27.738 20.278 27.7861 21.1934C27.8343 22.0846 27.8825 23 27.9307 23.9395C27.9788 24.8548 28.015 25.6859 28.0391 26.4326C28.0632 27.1794 28.0752 27.625 28.0752 27.7695L26.2324 27.9502ZM37.2529 35.7549C38.5055 35.249 39.734 34.8034 40.9385 34.418C42.167 34.0326 43.3112 33.7194 44.3711 33.4785C45.4551 33.2135 46.4307 33.0208 47.2979 32.9004C48.1891 32.7559 48.9238 32.6836 49.502 32.6836C51.2363 32.6836 52.6937 32.8883 53.874 33.2979C55.0544 33.6833 56.0059 34.3096 56.7285 35.1768C57.4512 36.0439 57.9691 37.152 58.2822 38.501C58.5954 39.8258 58.7399 41.4277 58.7158 43.3066L58.5352 55.0859C58.5111 55.8327 58.5592 56.5312 58.6797 57.1816C58.8001 57.832 58.9326 58.4704 59.0771 59.0967C59.1012 59.1208 59.1133 59.2171 59.1133 59.3857C59.1133 59.7471 58.8724 59.9639 58.3906 60.0361C58.0775 60.1084 57.7161 60.1686 57.3066 60.2168C56.9212 60.2891 56.5238 60.3372 56.1143 60.3613C55.7048 60.4095 55.2952 60.4336 54.8857 60.4336C54.4762 60.4577 54.1149 60.4697 53.8018 60.4697C53.5368 60.4697 53.332 60.3975 53.1875 60.2529C53.0671 60.1084 52.9707 59.8916 52.8984 59.6025L52.4287 57.8682C51.5133 58.2777 50.5739 58.6631 49.6104 59.0244C48.6468 59.3617 47.7194 59.6628 46.8281 59.9277C45.9609 60.1686 45.166 60.3613 44.4434 60.5059C43.7207 60.6504 43.1305 60.7227 42.6729 60.7227C41.3962 60.7227 40.2881 60.4818 39.3486 60C38.4092 59.5423 37.6383 58.9642 37.0361 58.2656C36.4339 57.543 35.9883 56.7601 35.6992 55.917C35.4102 55.0498 35.2656 54.2308 35.2656 53.46C35.2656 52.0869 35.5065 50.9307 35.9883 49.9912C36.4941 49.0277 37.1686 48.2327 38.0117 47.6064C38.7585 47.0524 39.6257 46.5947 40.6133 46.2334C41.625 45.8721 42.7331 45.5951 43.9375 45.4023C45.1419 45.1855 46.4427 45.029 47.8398 44.9326C49.237 44.8363 50.7064 44.764 52.248 44.7158L52.2842 43.4873C52.3083 42.3792 52.236 41.3916 52.0674 40.5244C51.9229 39.6331 51.6458 38.8864 51.2363 38.2842C50.8268 37.682 50.2728 37.2243 49.5742 36.9111C48.8757 36.598 47.9964 36.4414 46.9365 36.4414C45.6357 36.4414 44.2747 36.5859 42.8535 36.875C41.4564 37.1641 39.8545 37.5977 38.0479 38.1758L37.2529 35.7549ZM52.2119 47.1729C51.0798 47.2451 50.0199 47.3174 49.0322 47.3896C48.0446 47.4378 47.1413 47.5221 46.3223 47.6426C45.5033 47.763 44.7806 47.9557 44.1543 48.2207C43.528 48.4616 43.0221 48.8109 42.6367 49.2686C42.3477 49.6058 42.1068 50.0273 41.9141 50.5332C41.7214 51.0391 41.625 51.5931 41.625 52.1953C41.625 52.7012 41.6973 53.2191 41.8418 53.749C42.0104 54.279 42.2874 54.7728 42.6729 55.2305C43.0824 55.6641 43.6243 56.0254 44.2988 56.3145C44.9733 56.6035 45.8285 56.748 46.8643 56.748C47.0088 56.748 47.2376 56.724 47.5508 56.6758C47.888 56.6276 48.2855 56.5553 48.7432 56.459C49.2249 56.3385 49.7549 56.182 50.333 55.9893C50.9111 55.7965 51.5013 55.5557 52.1035 55.2666L52.2119 47.1729ZM63.7021 34.4541C64.3285 34.4059 65.015 34.3577 65.7617 34.3096C66.5085 34.2614 67.2432 34.2132 67.9658 34.165V28.9619C67.9658 27.2035 68.0742 25.6257 68.291 24.2285C68.5078 22.8314 68.8089 21.5788 69.1943 20.4707C69.6038 19.3626 70.0856 18.387 70.6396 17.5439C71.2178 16.6768 71.8682 15.8818 72.5908 15.1592C73.8434 13.9307 75.2767 12.9912 76.8906 12.3408C78.5286 11.6663 80.263 11.3291 82.0938 11.3291C82.8887 11.3291 83.7197 11.4134 84.5869 11.582C85.4782 11.7507 86.2852 12.0397 87.0078 12.4492C87.7546 12.8346 88.3688 13.3405 88.8506 13.9668C89.3324 14.5931 89.5732 15.3519 89.5732 16.2432C89.5732 16.9176 89.4528 17.4837 89.2119 17.9414C88.9951 18.3991 88.694 18.7725 88.3086 19.0615C87.9232 19.3506 87.4655 19.5674 86.9355 19.7119C86.4297 19.8324 85.8757 19.8926 85.2734 19.8926C84.7917 19.8926 84.2858 19.8564 83.7559 19.7842V19.0254C83.7559 18.375 83.7197 17.7728 83.6475 17.2188C83.5752 16.6406 83.4066 16.1589 83.1416 15.7734C82.9007 15.3639 82.5394 15.0508 82.0576 14.834C81.5758 14.5931 80.9375 14.4727 80.1426 14.4727C78.9141 14.4727 77.9144 14.7617 77.1436 15.3398C76.3968 15.8939 75.8187 16.6406 75.4092 17.5801C74.9997 18.5195 74.7227 19.6035 74.5781 20.832C74.4577 22.0605 74.3975 23.3372 74.3975 24.6621V33.8398C76.0114 33.7676 77.4928 33.7194 78.8418 33.6953C80.2148 33.6471 81.2747 33.623 82.0215 33.623C82.2142 33.623 82.3949 33.6953 82.5635 33.8398C82.7321 33.9603 82.8044 34.165 82.7803 34.4541L82.6357 36.6943L74.3975 36.7305V59.0244C74.3975 59.6025 74.1084 59.9398 73.5303 60.0361C73.1208 60.1084 72.6751 60.1686 72.1934 60.2168C71.7357 60.2891 71.29 60.3372 70.8564 60.3613C70.4229 60.4095 70.0254 60.4336 69.6641 60.4336C69.3027 60.4577 69.0257 60.4697 68.833 60.4697C68.2549 60.4697 67.9658 60.1686 67.9658 59.5664V36.7666L63.8105 36.875L63.7021 34.4541ZM109.41 56.9287C108.254 57.4827 107.037 58.0007 105.761 58.4824C104.484 58.9401 103.231 59.3376 102.003 59.6748C100.799 60.012 99.6663 60.265 98.6064 60.4336C97.5706 60.6263 96.7035 60.7227 96.0049 60.7227C94.0537 60.7227 92.3193 60.3613 90.8018 59.6387C89.3083 58.8919 88.0436 57.9163 87.0078 56.7119C85.9961 55.4834 85.2253 54.0742 84.6953 52.4844C84.1654 50.8945 83.9004 49.2445 83.9004 47.5342C83.9004 45.318 84.3099 43.3066 85.1289 41.5C85.9479 39.6693 87.056 38.1156 88.4531 36.8389C89.8743 35.5381 91.5244 34.5384 93.4033 33.8398C95.2822 33.1172 97.2695 32.7559 99.3652 32.7559C100.738 32.7559 101.955 32.9727 103.015 33.4062C104.075 33.8158 104.966 34.3939 105.688 35.1406C106.411 35.8633 106.965 36.7425 107.351 37.7783C107.736 38.8141 107.929 39.9463 107.929 41.1748C107.929 42.2347 107.724 43.5596 107.314 45.1494L90.332 46.0527C90.4284 47.5703 90.7295 48.9554 91.2354 50.208C91.7412 51.4606 92.4518 52.5446 93.3672 53.46C94.3066 54.3753 95.4388 55.0859 96.7637 55.5918C98.1126 56.0977 99.6543 56.3506 101.389 56.3506C102.545 56.3506 103.773 56.2181 105.074 55.9531C106.399 55.6641 107.579 55.3148 108.615 54.9053L109.41 56.9287ZM101.389 43.0537C101.461 42.7165 101.509 42.3913 101.533 42.0781C101.557 41.765 101.569 41.4398 101.569 41.1025C101.569 40.4281 101.461 39.7897 101.244 39.1875C101.051 38.5853 100.762 38.0674 100.377 37.6338C99.9915 37.1761 99.5098 36.8268 98.9316 36.5859C98.3535 36.321 97.7031 36.1885 96.9805 36.1885C95.8242 36.1885 94.8245 36.4053 93.9814 36.8389C93.1624 37.2484 92.4759 37.8024 91.9219 38.501C91.3919 39.1995 90.9945 40.0186 90.7295 40.958C90.4645 41.8734 90.32 42.8369 90.2959 43.8486L101.389 43.0537Z" fill="#027AAE"/>
<path d="M110.855 13.3525C113.505 12.6299 115.685 12.124 117.396 11.835C119.106 11.5218 120.13 11.3652 120.467 11.3652C121.238 11.3652 121.623 11.7988 121.623 12.666V45.4023L131.56 34.707C131.8 34.4661 132.029 34.2855 132.246 34.165C132.487 34.0446 132.776 33.9362 133.113 33.8398C133.643 33.6953 134.221 33.5749 134.848 33.4785C135.474 33.3581 136.076 33.2617 136.654 33.1895C137.257 33.1172 137.786 33.069 138.244 33.0449C138.726 32.9967 139.063 32.9727 139.256 32.9727C139.665 32.9727 139.87 33.1654 139.87 33.5508C139.87 33.6712 139.774 33.8278 139.581 34.0205L127.513 43.5596L140.701 59.0244C140.822 59.2171 140.882 59.3737 140.882 59.4941C140.882 59.7832 140.713 59.9639 140.376 60.0361C139.966 60.1084 139.473 60.1686 138.895 60.2168C138.34 60.2891 137.786 60.3372 137.232 60.3613C136.678 60.4095 136.173 60.4336 135.715 60.4336C135.257 60.4577 134.92 60.4697 134.703 60.4697C134.39 60.4697 134.113 60.3975 133.872 60.2529C133.655 60.1325 133.402 59.9036 133.113 59.5664L121.623 46.0889V59.0244C121.623 59.6025 121.334 59.9398 120.756 60.0361C120.346 60.1084 119.901 60.1686 119.419 60.2168C118.961 60.2891 118.516 60.3372 118.082 60.3613C117.648 60.4095 117.251 60.4336 116.89 60.4336C116.528 60.4577 116.251 60.4697 116.059 60.4697C115.48 60.4697 115.191 60.1686 115.191 59.5664V18.3027C115.191 17.026 114.987 16.1589 114.577 15.7012C114.168 15.2194 113.493 14.9785 112.554 14.9785C112.096 14.9785 111.602 15.0146 111.072 15.0869L110.855 13.3525ZM145.29 35.7549C146.543 35.249 147.771 34.8034 148.976 34.418C150.204 34.0326 151.348 33.7194 152.408 33.4785C153.492 33.2135 154.468 33.0208 155.335 32.9004C156.226 32.7559 156.961 32.6836 157.539 32.6836C159.273 32.6836 160.731 32.8883 161.911 33.2979C163.091 33.6833 164.043 34.3096 164.766 35.1768C165.488 36.0439 166.006 37.152 166.319 38.501C166.632 39.8258 166.777 41.4277 166.753 43.3066L166.572 55.0859C166.548 55.8327 166.596 56.5312 166.717 57.1816C166.837 57.832 166.97 58.4704 167.114 59.0967C167.138 59.1208 167.15 59.2171 167.15 59.3857C167.15 59.7471 166.91 59.9639 166.428 60.0361C166.115 60.1084 165.753 60.1686 165.344 60.2168C164.958 60.2891 164.561 60.3372 164.151 60.3613C163.742 60.4095 163.332 60.4336 162.923 60.4336C162.513 60.4577 162.152 60.4697 161.839 60.4697C161.574 60.4697 161.369 60.3975 161.225 60.2529C161.104 60.1084 161.008 59.8916 160.936 59.6025L160.466 57.8682C159.55 58.2777 158.611 58.6631 157.647 59.0244C156.684 59.3617 155.757 59.6628 154.865 59.9277C153.998 60.1686 153.203 60.3613 152.48 60.5059C151.758 60.6504 151.168 60.7227 150.71 60.7227C149.433 60.7227 148.325 60.4818 147.386 60C146.446 59.5423 145.675 58.9642 145.073 58.2656C144.471 57.543 144.025 56.7601 143.736 55.917C143.447 55.0498 143.303 54.2308 143.303 53.46C143.303 52.0869 143.544 50.9307 144.025 49.9912C144.531 49.0277 145.206 48.2327 146.049 47.6064C146.796 47.0524 147.663 46.5947 148.65 46.2334C149.662 45.8721 150.77 45.5951 151.975 45.4023C153.179 45.1855 154.48 45.029 155.877 44.9326C157.274 44.8363 158.743 44.764 160.285 44.7158L160.321 43.4873C160.345 42.3792 160.273 41.3916 160.104 40.5244C159.96 39.6331 159.683 38.8864 159.273 38.2842C158.864 37.682 158.31 37.2243 157.611 36.9111C156.913 36.598 156.034 36.4414 154.974 36.4414C153.673 36.4414 152.312 36.5859 150.891 36.875C149.493 37.1641 147.892 37.5977 146.085 38.1758L145.29 35.7549ZM160.249 47.1729C159.117 47.2451 158.057 47.3174 157.069 47.3896C156.082 47.4378 155.178 47.5221 154.359 47.6426C153.54 47.763 152.818 47.9557 152.191 48.2207C151.565 48.4616 151.059 48.8109 150.674 49.2686C150.385 49.6058 150.144 50.0273 149.951 50.5332C149.758 51.0391 149.662 51.5931 149.662 52.1953C149.662 52.7012 149.734 53.2191 149.879 53.749C150.048 54.279 150.325 54.7728 150.71 55.2305C151.119 55.6641 151.661 56.0254 152.336 56.3145C153.01 56.6035 153.866 56.748 154.901 56.748C155.046 56.748 155.275 56.724 155.588 56.6758C155.925 56.6276 156.323 56.5553 156.78 56.459C157.262 56.3385 157.792 56.182 158.37 55.9893C158.948 55.7965 159.538 55.5557 160.141 55.2666L160.249 47.1729ZM171.92 34.96C173.221 34.5986 174.425 34.2975 175.533 34.0566C176.641 33.7917 177.617 33.5749 178.46 33.4062C179.327 33.2376 180.026 33.1172 180.556 33.0449C181.11 32.9727 181.471 32.9365 181.64 32.9365C182.41 32.9365 182.796 33.3701 182.796 34.2373V36.0801C183.615 35.6224 184.458 35.1888 185.325 34.7793C186.192 34.3698 187.035 34.0205 187.854 33.7314C188.698 33.4183 189.493 33.1774 190.239 33.0088C191.01 32.8402 191.685 32.7559 192.263 32.7559C192.913 32.7559 193.479 32.8763 193.961 33.1172C194.467 33.334 194.888 33.6351 195.226 34.0205C195.587 34.4059 195.852 34.8395 196.021 35.3213C196.189 35.8031 196.273 36.2969 196.273 36.8027C196.273 37.3327 196.177 37.8506 195.984 38.3564C195.816 38.8382 195.539 39.2718 195.153 39.6572C194.792 40.0426 194.334 40.3558 193.78 40.5967C193.226 40.8135 192.576 40.9219 191.829 40.9219H191.07C190.95 40.9219 190.817 40.9219 190.673 40.9219C190.528 40.8978 190.396 40.8737 190.275 40.8496V40.0547C190.275 38.9466 190.047 38.1758 189.589 37.7422C189.155 37.2845 188.589 37.0557 187.891 37.0557C187.168 37.0557 186.349 37.2122 185.434 37.5254C184.542 37.8385 183.663 38.236 182.796 38.7178V59.0244C182.796 59.6025 182.507 59.9398 181.929 60.0361C181.519 60.1084 181.074 60.1686 180.592 60.2168C180.134 60.2891 179.688 60.3372 179.255 60.3613C178.821 60.4095 178.424 60.4336 178.062 60.4336C177.701 60.4577 177.424 60.4697 177.231 60.4697C176.653 60.4697 176.364 60.1686 176.364 59.5664V39.874C176.364 38.5973 176.16 37.7301 175.75 37.2725C175.34 36.7907 174.702 36.5498 173.835 36.5498C173.57 36.5498 173.305 36.5618 173.04 36.5859C172.799 36.5859 172.498 36.6221 172.137 36.6943L171.92 34.96ZM210.871 60.7227C208.872 60.7227 207.053 60.3734 205.415 59.6748C203.801 58.9521 202.404 57.9766 201.224 56.748C200.043 55.5195 199.128 54.0742 198.478 52.4121C197.851 50.7259 197.538 48.9193 197.538 46.9922C197.538 44.8724 197.899 42.9333 198.622 41.1748C199.369 39.4163 200.393 37.9229 201.693 36.6943C202.994 35.4417 204.548 34.4782 206.354 33.8037C208.161 33.1051 210.148 32.7559 212.316 32.7559C214.316 32.7559 216.134 33.1051 217.772 33.8037C219.435 34.4782 220.844 35.4176 222 36.6221C223.18 37.8265 224.096 39.2477 224.746 40.8857C225.396 42.5238 225.722 44.2943 225.722 46.1973C225.722 48.3652 225.36 50.3525 224.638 52.1592C223.915 53.9417 222.891 55.4714 221.566 56.748C220.266 58.0007 218.7 58.9762 216.869 59.6748C215.062 60.3734 213.063 60.7227 210.871 60.7227ZM212.569 57.543C213.87 57.543 214.942 57.266 215.785 56.7119C216.628 56.1338 217.291 55.3991 217.772 54.5078C218.254 53.6165 218.579 52.6169 218.748 51.5088C218.941 50.4007 219.037 49.3167 219.037 48.2568C219.037 46.9561 218.893 45.583 218.604 44.1377C218.339 42.6924 217.881 41.3675 217.23 40.1631C216.58 38.9346 215.725 37.9229 214.665 37.1279C213.605 36.333 212.292 35.9355 210.727 35.9355C209.426 35.9355 208.354 36.2246 207.511 36.8027C206.668 37.3568 206.005 38.0915 205.523 39.0068C205.042 39.8981 204.704 40.8978 204.512 42.0059C204.319 43.0898 204.223 44.1738 204.223 45.2578C204.223 46.5827 204.367 47.9678 204.656 49.4131C204.945 50.8584 205.415 52.1833 206.065 53.3877C206.716 54.5921 207.571 55.5918 208.631 56.3867C209.691 57.1576 211.004 57.543 212.569 57.543Z" fill="#E59411"/>
<path d="M110.038 75L107.079 71.579V75H105.825V67.355H107.079V70.842L110.049 67.355H111.622L108.3 71.183L111.677 75H110.038ZM118.341 71.821C118.341 72.0483 118.326 72.2537 118.297 72.437H113.666C113.703 72.921 113.882 73.3097 114.205 73.603C114.528 73.8963 114.924 74.043 115.393 74.043C116.068 74.043 116.544 73.7607 116.823 73.196H118.176C117.993 73.7533 117.659 74.2117 117.175 74.571C116.698 74.923 116.104 75.099 115.393 75.099C114.814 75.099 114.293 74.9707 113.831 74.714C113.376 74.45 113.017 74.0833 112.753 73.614C112.496 73.1373 112.368 72.5873 112.368 71.964C112.368 71.3407 112.493 70.7943 112.742 70.325C112.999 69.8483 113.354 69.4817 113.809 69.225C114.271 68.9683 114.799 68.84 115.393 68.84C115.965 68.84 116.475 68.9647 116.922 69.214C117.369 69.4633 117.718 69.8153 117.967 70.27C118.216 70.7173 118.341 71.2343 118.341 71.821ZM117.032 71.425C117.025 70.963 116.86 70.5927 116.537 70.314C116.214 70.0353 115.815 69.896 115.338 69.896C114.905 69.896 114.535 70.0353 114.227 70.314C113.919 70.5853 113.736 70.9557 113.677 71.425H117.032ZM125.13 71.821C125.13 72.0483 125.115 72.2537 125.086 72.437H120.455C120.492 72.921 120.671 73.3097 120.994 73.603C121.317 73.8963 121.713 74.043 122.182 74.043C122.857 74.043 123.333 73.7607 123.612 73.196H124.965C124.782 73.7533 124.448 74.2117 123.964 74.571C123.487 74.923 122.893 75.099 122.182 75.099C121.603 75.099 121.082 74.9707 120.62 74.714C120.165 74.45 119.806 74.0833 119.542 73.614C119.285 73.1373 119.157 72.5873 119.157 71.964C119.157 71.3407 119.282 70.7943 119.531 70.325C119.788 69.8483 120.143 69.4817 120.598 69.225C121.06 68.9683 121.588 68.84 122.182 68.84C122.754 68.84 123.264 68.9647 123.711 69.214C124.158 69.4633 124.507 69.8153 124.756 70.27C125.005 70.7173 125.13 71.2343 125.13 71.821ZM123.821 71.425C123.814 70.963 123.649 70.5927 123.326 70.314C123.003 70.0353 122.604 69.896 122.127 69.896C121.694 69.896 121.324 70.0353 121.016 70.314C120.708 70.5853 120.525 70.9557 120.466 71.425H123.821ZM127.618 69.83C127.831 69.5513 128.12 69.3167 128.487 69.126C128.854 68.9353 129.268 68.84 129.73 68.84C130.258 68.84 130.738 68.972 131.171 69.236C131.611 69.4927 131.956 69.8557 132.205 70.325C132.454 70.7943 132.579 71.3333 132.579 71.942C132.579 72.5507 132.454 73.097 132.205 73.581C131.956 74.0577 131.611 74.4317 131.171 74.703C130.738 74.967 130.258 75.099 129.73 75.099C129.268 75.099 128.857 75.0073 128.498 74.824C128.139 74.6333 127.845 74.3987 127.618 74.12V77.882H126.364V68.939H127.618V69.83ZM131.303 71.942C131.303 71.524 131.215 71.1647 131.039 70.864C130.87 70.556 130.643 70.325 130.357 70.171C130.078 70.0097 129.778 69.929 129.455 69.929C129.14 69.929 128.839 70.0097 128.553 70.171C128.274 70.3323 128.047 70.567 127.871 70.875C127.702 71.183 127.618 71.546 127.618 71.964C127.618 72.382 127.702 72.7487 127.871 73.064C128.047 73.372 128.274 73.6067 128.553 73.768C128.839 73.9293 129.14 74.01 129.455 74.01C129.778 74.01 130.078 73.9293 130.357 73.768C130.643 73.5993 130.87 73.3573 131.039 73.042C131.215 72.7267 131.303 72.36 131.303 71.942ZM134.457 68.136C134.23 68.136 134.039 68.059 133.885 67.905C133.731 67.751 133.654 67.5603 133.654 67.333C133.654 67.1057 133.731 66.915 133.885 66.761C134.039 66.607 134.23 66.53 134.457 66.53C134.677 66.53 134.864 66.607 135.018 66.761C135.172 66.915 135.249 67.1057 135.249 67.333C135.249 67.5603 135.172 67.751 135.018 67.905C134.864 68.059 134.677 68.136 134.457 68.136ZM135.073 68.939V75H133.819V68.939H135.073ZM139.778 68.84C140.254 68.84 140.68 68.939 141.054 69.137C141.435 69.335 141.732 69.6283 141.945 70.017C142.157 70.4057 142.264 70.875 142.264 71.425V75H141.021V71.612C141.021 71.0693 140.885 70.655 140.614 70.369C140.342 70.0757 139.972 69.929 139.503 69.929C139.033 69.929 138.659 70.0757 138.381 70.369C138.109 70.655 137.974 71.0693 137.974 71.612V75H136.72V68.939H137.974V69.632C138.179 69.3827 138.439 69.1883 138.755 69.049C139.077 68.9097 139.418 68.84 139.778 68.84ZM146.305 68.84C146.774 68.84 147.189 68.9353 147.548 69.126C147.915 69.3093 148.201 69.5403 148.406 69.819V68.939H149.671V75.099C149.671 75.6563 149.554 76.1513 149.319 76.584C149.084 77.024 148.743 77.3687 148.296 77.618C147.856 77.8673 147.328 77.992 146.712 77.992C145.891 77.992 145.209 77.7977 144.666 77.409C144.123 77.0277 143.815 76.507 143.742 75.847H144.985C145.08 76.1623 145.282 76.4153 145.59 76.606C145.905 76.804 146.279 76.903 146.712 76.903C147.218 76.903 147.625 76.749 147.933 76.441C148.248 76.133 148.406 75.6857 148.406 75.099V74.087C148.193 74.373 147.904 74.615 147.537 74.813C147.178 75.0037 146.767 75.099 146.305 75.099C145.777 75.099 145.293 74.967 144.853 74.703C144.42 74.4317 144.076 74.0577 143.819 73.581C143.57 73.097 143.445 72.5507 143.445 71.942C143.445 71.3333 143.57 70.7943 143.819 70.325C144.076 69.8557 144.42 69.4927 144.853 69.236C145.293 68.972 145.777 68.84 146.305 68.84ZM148.406 71.964C148.406 71.546 148.318 71.183 148.142 70.875C147.973 70.567 147.75 70.3323 147.471 70.171C147.192 70.0097 146.892 69.929 146.569 69.929C146.246 69.929 145.946 70.0097 145.667 70.171C145.388 70.325 145.161 70.556 144.985 70.864C144.816 71.1647 144.732 71.524 144.732 71.942C144.732 72.36 144.816 72.7267 144.985 73.042C145.161 73.3573 145.388 73.5993 145.667 73.768C145.953 73.9293 146.254 74.01 146.569 74.01C146.892 74.01 147.192 73.9293 147.471 73.768C147.75 73.6067 147.973 73.372 148.142 73.064C148.318 72.7487 148.406 72.382 148.406 71.964ZM155.639 69.962V73.317C155.639 73.5443 155.69 73.7093 155.793 73.812C155.903 73.9073 156.086 73.955 156.343 73.955H157.113V75H156.123C155.558 75 155.125 74.868 154.825 74.604C154.524 74.34 154.374 73.911 154.374 73.317V69.962H153.659V68.939H154.374V67.432H155.639V68.939H157.113V69.962H155.639ZM161.403 68.84C161.865 68.84 162.276 68.939 162.635 69.137C163.002 69.335 163.288 69.6283 163.493 70.017C163.706 70.4057 163.812 70.875 163.812 71.425V75H162.569V71.612C162.569 71.0693 162.434 70.655 162.162 70.369C161.891 70.0757 161.521 69.929 161.051 69.929C160.582 69.929 160.208 70.0757 159.929 70.369C159.658 70.655 159.522 71.0693 159.522 71.612V75H158.268V66.86H159.522V69.643C159.735 69.3863 160.003 69.1883 160.325 69.049C160.655 68.9097 161.015 68.84 161.403 68.84ZM170.967 71.821C170.967 72.0483 170.952 72.2537 170.923 72.437H166.292C166.329 72.921 166.508 73.3097 166.831 73.603C167.154 73.8963 167.55 74.043 168.019 74.043C168.694 74.043 169.17 73.7607 169.449 73.196H170.802C170.619 73.7533 170.285 74.2117 169.801 74.571C169.324 74.923 168.73 75.099 168.019 75.099C167.44 75.099 166.919 74.9707 166.457 74.714C166.002 74.45 165.643 74.0833 165.379 73.614C165.122 73.1373 164.994 72.5873 164.994 71.964C164.994 71.3407 165.119 70.7943 165.368 70.325C165.625 69.8483 165.98 69.4817 166.435 69.225C166.897 68.9683 167.425 68.84 168.019 68.84C168.591 68.84 169.101 68.9647 169.548 69.214C169.995 69.4633 170.344 69.8153 170.593 70.27C170.842 70.7173 170.967 71.2343 170.967 71.821ZM169.658 71.425C169.651 70.963 169.486 70.5927 169.163 70.314C168.84 70.0353 168.441 69.896 167.964 69.896C167.531 69.896 167.161 70.0353 166.853 70.314C166.545 70.5853 166.362 70.9557 166.303 71.425H169.658ZM180.404 69.632C180.404 70.0207 180.313 70.3873 180.129 70.732C179.946 71.0767 179.653 71.359 179.249 71.579C178.846 71.7917 178.329 71.898 177.698 71.898H176.312V75H175.058V67.355H177.698C178.285 67.355 178.78 67.4577 179.183 67.663C179.594 67.861 179.898 68.1323 180.096 68.477C180.302 68.8217 180.404 69.2067 180.404 69.632ZM177.698 70.875C178.175 70.875 178.531 70.7687 178.765 70.556C179 70.336 179.117 70.028 179.117 69.632C179.117 68.796 178.644 68.378 177.698 68.378H176.312V70.875H177.698ZM182.854 69.819C183.038 69.511 183.28 69.2727 183.58 69.104C183.888 68.928 184.251 68.84 184.669 68.84V70.138H184.35C183.859 70.138 183.485 70.2627 183.228 70.512C182.979 70.7613 182.854 71.194 182.854 71.81V75H181.6V68.939H182.854V69.819ZM188.451 75.099C187.879 75.099 187.362 74.9707 186.9 74.714C186.438 74.45 186.075 74.0833 185.811 73.614C185.547 73.1373 185.415 72.5873 185.415 71.964C185.415 71.348 185.551 70.8017 185.822 70.325C186.093 69.8483 186.464 69.4817 186.933 69.225C187.402 68.9683 187.927 68.84 188.506 68.84C189.085 68.84 189.61 68.9683 190.079 69.225C190.548 69.4817 190.919 69.8483 191.19 70.325C191.461 70.8017 191.597 71.348 191.597 71.964C191.597 72.58 191.458 73.1263 191.179 73.603C190.9 74.0797 190.519 74.45 190.035 74.714C189.558 74.9707 189.03 75.099 188.451 75.099ZM188.451 74.01C188.774 74.01 189.074 73.933 189.353 73.779C189.639 73.625 189.87 73.394 190.046 73.086C190.222 72.778 190.31 72.404 190.31 71.964C190.31 71.524 190.226 71.1537 190.057 70.853C189.888 70.545 189.665 70.314 189.386 70.16C189.107 70.006 188.807 69.929 188.484 69.929C188.161 69.929 187.861 70.006 187.582 70.16C187.311 70.314 187.094 70.545 186.933 70.853C186.772 71.1537 186.691 71.524 186.691 71.964C186.691 72.6167 186.856 73.1227 187.186 73.482C187.523 73.834 187.945 74.01 188.451 74.01ZM200.174 68.84C200.65 68.84 201.076 68.939 201.45 69.137C201.831 69.335 202.128 69.6283 202.341 70.017C202.561 70.4057 202.671 70.875 202.671 71.425V75H201.428V71.612C201.428 71.0693 201.292 70.655 201.021 70.369C200.749 70.0757 200.379 69.929 199.91 69.929C199.44 69.929 199.066 70.0757 198.788 70.369C198.516 70.655 198.381 71.0693 198.381 71.612V75H197.138V71.612C197.138 71.0693 197.002 70.655 196.731 70.369C196.459 70.0757 196.089 69.929 195.62 69.929C195.15 69.929 194.776 70.0757 194.498 70.369C194.226 70.655 194.091 71.0693 194.091 71.612V75H192.837V68.939H194.091V69.632C194.296 69.3827 194.556 69.1883 194.872 69.049C195.187 68.9097 195.524 68.84 195.884 68.84C196.368 68.84 196.8 68.9427 197.182 69.148C197.563 69.3533 197.856 69.6503 198.062 70.039C198.245 69.6723 198.531 69.3827 198.92 69.17C199.308 68.95 199.726 68.84 200.174 68.84ZM204.904 68.136C204.677 68.136 204.486 68.059 204.332 67.905C204.178 67.751 204.101 67.5603 204.101 67.333C204.101 67.1057 204.178 66.915 204.332 66.761C204.486 66.607 204.677 66.53 204.904 66.53C205.124 66.53 205.311 66.607 205.465 66.761C205.619 66.915 205.696 67.1057 205.696 67.333C205.696 67.5603 205.619 67.751 205.465 67.905C205.311 68.059 205.124 68.136 204.904 68.136ZM205.52 68.939V75H204.266V68.939H205.52ZM209.367 75.099C208.89 75.099 208.461 75.0147 208.08 74.846C207.706 74.67 207.409 74.4353 207.189 74.142C206.969 73.8413 206.851 73.5077 206.837 73.141H208.135C208.157 73.3977 208.278 73.614 208.498 73.79C208.725 73.9587 209.007 74.043 209.345 74.043C209.697 74.043 209.968 73.977 210.159 73.845C210.357 73.7057 210.456 73.5297 210.456 73.317C210.456 73.0897 210.346 72.921 210.126 72.811C209.913 72.701 209.572 72.58 209.103 72.448C208.648 72.3233 208.278 72.2023 207.992 72.085C207.706 71.9677 207.456 71.788 207.244 71.546C207.038 71.304 206.936 70.985 206.936 70.589C206.936 70.2663 207.031 69.973 207.222 69.709C207.412 69.4377 207.684 69.225 208.036 69.071C208.395 68.917 208.806 68.84 209.268 68.84C209.957 68.84 210.511 69.016 210.929 69.368C211.354 69.7127 211.581 70.1857 211.611 70.787H210.357C210.335 70.5157 210.225 70.2993 210.027 70.138C209.829 69.9767 209.561 69.896 209.224 69.896C208.894 69.896 208.641 69.9583 208.465 70.083C208.289 70.2077 208.201 70.3727 208.201 70.578C208.201 70.7393 208.259 70.875 208.377 70.985C208.494 71.095 208.637 71.183 208.806 71.249C208.974 71.3077 209.224 71.3847 209.554 71.48C209.994 71.5973 210.353 71.7183 210.632 71.843C210.918 71.9603 211.163 72.1363 211.369 72.371C211.574 72.6057 211.68 72.9173 211.688 73.306C211.688 73.6507 211.592 73.9587 211.402 74.23C211.211 74.5013 210.94 74.714 210.588 74.868C210.243 75.022 209.836 75.099 209.367 75.099ZM218.598 71.821C218.598 72.0483 218.583 72.2537 218.554 72.437H213.923C213.959 72.921 214.139 73.3097 214.462 73.603C214.784 73.8963 215.18 74.043 215.65 74.043C216.324 74.043 216.801 73.7607 217.08 73.196H218.433C218.249 73.7533 217.916 74.2117 217.432 74.571C216.955 74.923 216.361 75.099 215.65 75.099C215.07 75.099 214.55 74.9707 214.088 74.714C213.633 74.45 213.274 74.0833 213.01 73.614C212.753 73.1373 212.625 72.5873 212.625 71.964C212.625 71.3407 212.749 70.7943 212.999 70.325C213.255 69.8483 213.611 69.4817 214.066 69.225C214.528 68.9683 215.056 68.84 215.65 68.84C216.222 68.84 216.731 68.9647 217.179 69.214C217.626 69.4633 217.974 69.8153 218.224 70.27C218.473 70.7173 218.598 71.2343 218.598 71.821ZM217.289 71.425C217.281 70.963 217.116 70.5927 216.794 70.314C216.471 70.0353 216.071 69.896 215.595 69.896C215.162 69.896 214.792 70.0353 214.484 70.314C214.176 70.5853 213.992 70.9557 213.934 71.425H217.289ZM220.338 75.077C220.111 75.077 219.92 75 219.766 74.846C219.612 74.692 219.535 74.5013 219.535 74.274C219.535 74.0467 219.612 73.856 219.766 73.702C219.92 73.548 220.111 73.471 220.338 73.471C220.558 73.471 220.745 73.548 220.899 73.702C221.053 73.856 221.13 74.0467 221.13 74.274C221.13 74.5013 221.053 74.692 220.899 74.846C220.745 75 220.558 75.077 220.338 75.077ZM222.991 75.077C222.764 75.077 222.573 75 222.419 74.846C222.265 74.692 222.188 74.5013 222.188 74.274C222.188 74.0467 222.265 73.856 222.419 73.702C222.573 73.548 222.764 73.471 222.991 73.471C223.211 73.471 223.398 73.548 223.552 73.702C223.706 73.856 223.783 74.0467 223.783 74.274C223.783 74.5013 223.706 74.692 223.552 74.846C223.398 75 223.211 75.077 222.991 75.077ZM225.644 75.077C225.417 75.077 225.226 75 225.072 74.846C224.918 74.692 224.841 74.5013 224.841 74.274C224.841 74.0467 224.918 73.856 225.072 73.702C225.226 73.548 225.417 73.471 225.644 73.471C225.864 73.471 226.051 73.548 226.205 73.702C226.359 73.856 226.436 74.0467 226.436 74.274C226.436 74.5013 226.359 74.692 226.205 74.846C226.051 75 225.864 75.077 225.644 75.077Z" fill="white"/>
<path d="M219.093 11.3333C217.775 11.3333 216.486 11.7242 215.39 12.4568C214.293 13.1893 213.439 14.2305 212.934 15.4487C212.43 16.6669 212.298 18.0073 212.555 19.3005C212.812 20.5937 213.447 21.7816 214.379 22.714C215.312 23.6463 216.5 24.2813 217.793 24.5385C219.086 24.7957 220.426 24.6637 221.645 24.1591C222.863 23.6545 223.904 22.8 224.637 21.7037C225.369 20.6074 225.76 19.3185 225.76 17.9999C225.76 16.2318 225.058 14.5361 223.807 13.2859C222.557 12.0356 220.862 11.3333 219.093 11.3333ZM219.093 23.3333C218.039 23.3333 217.007 23.0205 216.13 22.4344C215.253 21.8484 214.57 21.0154 214.166 20.0409C213.762 19.0664 213.657 17.994 213.863 16.9594C214.068 15.9249 214.576 14.9746 215.322 14.2287C216.068 13.4828 217.018 12.9749 218.053 12.7691C219.088 12.5633 220.16 12.6689 221.134 13.0726C222.109 13.4762 222.942 14.1598 223.528 15.0369C224.114 15.9139 224.427 16.9451 224.427 17.9999C224.427 19.4144 223.865 20.771 222.865 21.7712C221.864 22.7713 220.508 23.3333 219.093 23.3333Z" fill="white"/>
<path d="M221.76 16.6667C221.76 16.1363 221.549 15.6276 221.174 15.2525C220.799 14.8775 220.291 14.6667 219.76 14.6667H216.427V21.3334H217.76V18.6667H218.733L220.513 21.3334H222.113L220.28 18.5867C220.703 18.4729 221.077 18.2234 221.344 17.8765C221.612 17.5297 221.758 17.1047 221.76 16.6667ZM219.76 17.3334H217.76V16.0001H219.76C219.937 16.0001 220.106 16.0703 220.231 16.1953C220.357 16.3204 220.427 16.4899 220.427 16.6667C220.427 16.8436 220.357 17.0131 220.231 17.1382C220.106 17.2632 219.937 17.3334 219.76 17.3334Z" fill="white"/>
</svg>
