<svg width="37" height="29" viewBox="0 0 37 29" fill="none" xmlns="http://www.w3.org/2000/svg">
<path d="M13.4399 2.66H23.29V19.768H13.4399V2.66Z" fill="#FF5F00"/>
<path d="M6.78003 28.379V26.566C6.78003 25.87 6.33997 25.417 5.58997 25.417C5.20997 25.417 4.80002 25.538 4.52002 25.931C4.30002 25.598 3.99002 25.417 3.52002 25.417C3.21002 25.417 2.90002 25.508 2.65002 25.84V25.477H1.98999V28.379H2.65002V26.777C2.65002 26.263 2.93 26.021 3.37 26.021C3.8 26.021 4.02002 26.294 4.02002 26.777V28.379H4.68005V26.777C4.68005 26.263 4.99002 26.021 5.40002 26.021C5.84002 26.021 6.06006 26.294 6.06006 26.777V28.379H6.78003ZM16.5 25.477H15.4399V24.601H14.78V25.477H14.1899V26.052H14.78V27.382C14.78 28.047 15.0599 28.44 15.8199 28.44C16.0999 28.44 16.41 28.349 16.63 28.228L16.4399 27.684C16.2499 27.805 16.03 27.835 15.88 27.835C15.57 27.835 15.4399 27.654 15.4399 27.351V26.052H16.5V25.477ZM22.0699 25.417C21.6999 25.417 21.45 25.598 21.29 25.84V25.477H20.63V28.379H21.29V26.747C21.29 26.263 21.51 25.991 21.92 25.991C22.04 25.991 22.1999 26.022 22.3199 26.052L22.51 25.447C22.38 25.417 22.1999 25.417 22.0699 25.417ZM13.66 25.719C13.34 25.508 12.9099 25.417 12.4399 25.417C11.6899 25.417 11.1899 25.78 11.1899 26.354C11.1899 26.838 11.56 27.11 12.22 27.2L12.53 27.231C12.88 27.291 13.0601 27.382 13.0601 27.533C13.0601 27.744 12.81 27.896 12.37 27.896C11.94 27.896 11.59 27.744 11.37 27.593L11.0601 28.077C11.4001 28.319 11.87 28.44 12.34 28.44C13.22 28.44 13.72 28.047 13.72 27.503C13.72 26.989 13.3099 26.717 12.6899 26.626L12.37 26.596C12.09 26.565 11.87 26.505 11.87 26.324C11.87 26.112 12.0899 25.991 12.4399 25.991C12.8099 25.991 13.19 26.142 13.38 26.233L13.66 25.719ZM31.11 25.417C30.74 25.417 30.49 25.598 30.33 25.84V25.477H29.67V28.379H30.33V26.747C30.33 26.263 30.55 25.991 30.96 25.991C31.08 25.991 31.24 26.022 31.36 26.052L31.55 25.447C31.43 25.417 31.24 25.417 31.11 25.417ZM22.73 26.928C22.73 27.805 23.3499 28.44 24.3199 28.44C24.7599 28.44 25.07 28.349 25.39 28.107L25.0699 27.593C24.8199 27.775 24.57 27.865 24.29 27.865C23.76 27.865 23.39 27.503 23.39 26.928C23.39 26.384 23.76 26.021 24.29 25.991C24.57 25.991 24.8199 26.082 25.0699 26.263L25.39 25.75C25.07 25.508 24.7599 25.417 24.3199 25.417C23.3499 25.417 22.73 26.052 22.73 26.928ZM28.8 26.928V25.477H28.14V25.84C27.92 25.568 27.61 25.417 27.2 25.417C26.36 25.417 25.7 26.052 25.7 26.928C25.7 27.805 26.36 28.44 27.2 28.44C27.64 28.44 27.95 28.288 28.14 28.016V28.379H28.8V26.928ZM26.39 26.928C26.39 26.414 26.73 25.991 27.3 25.991C27.83 25.991 28.2 26.384 28.2 26.928C28.2 27.442 27.83 27.865 27.3 27.865C26.73 27.835 26.39 27.442 26.39 26.928ZM18.54 25.417C17.66 25.417 17.04 26.021 17.04 26.928C17.04 27.835 17.6599 28.44 18.5699 28.44C19.0099 28.44 19.44 28.319 19.79 28.047L19.48 27.593C19.23 27.775 18.91 27.896 18.6 27.896C18.19 27.896 17.7899 27.714 17.6899 27.2H19.91V26.959C19.94 26.021 19.38 25.417 18.54 25.417ZM18.54 25.961C18.94 25.961 19.23 26.203 19.29 26.656H17.72C17.79 26.263 18.07 25.961 18.54 25.961ZM34.83 26.928V24.329H34.1801V25.84C33.9601 25.568 33.65 25.417 33.24 25.417C32.39 25.417 31.74 26.052 31.74 26.928C31.74 27.805 32.39 28.44 33.24 28.44C33.68 28.44 33.9901 28.288 34.1801 28.016V28.379H34.83V26.928ZM32.4301 26.928C32.4301 26.414 32.77 25.991 33.33 25.991C33.86 25.991 34.24 26.384 34.24 26.928C34.24 27.442 33.86 27.865 33.33 27.865C32.77 27.835 32.4301 27.442 32.4301 26.928ZM10.47 26.928V25.477H9.81006V25.84C9.59006 25.568 9.28 25.417 8.87 25.417C8.03 25.417 7.37 26.052 7.37 26.928C7.37 27.805 8.03 28.44 8.87 28.44C9.31 28.44 9.62006 28.288 9.81006 28.016V28.379H10.47V26.928ZM8.03003 26.928C8.03003 26.414 8.37005 25.991 8.93005 25.991C9.47005 25.991 9.83997 26.384 9.83997 26.928C9.83997 27.442 9.47005 27.865 8.93005 27.865C8.37005 27.835 8.03003 27.442 8.03003 26.928Z" fill="white"/>
<path d="M14.0601 11.214C14.0601 7.73799 15.75 4.655 18.35 2.66C16.44 1.21 14.03 0.333008 11.4 0.333008C5.18002 0.333008 0.140015 5.19899 0.140015 11.214C0.140015 17.229 5.18002 22.096 11.4 22.096C14.03 22.096 16.44 21.219 18.35 19.768C15.75 17.803 14.0601 14.69 14.0601 11.214Z" fill="#EB001B"/>
<path d="M36.59 11.214C36.59 17.229 31.5499 22.096 25.3199 22.096C22.6999 22.096 20.29 21.219 18.38 19.768C21.01 17.773 22.67 14.69 22.67 11.214C22.67 7.73799 20.98 4.655 18.38 2.66C20.29 1.21 22.6999 0.333008 25.3199 0.333008C31.5499 0.333008 36.59 5.22999 36.59 11.214Z" fill="#F79E1B"/>
</svg>
